<svg width="35" height="35" viewBox="0 0 35 35" fill="none" xmlns="http://www.w3.org/2000/svg">
<path d="M11.9998 14.751H23.9998" stroke="black" stroke-width="1.5" stroke-linecap="round"/>
<path d="M11.9998 20H20.2498" stroke="black" stroke-width="1.5" stroke-linecap="round"/>
<path d="M25.5 4.00673C23.2936 2.73046 20.7321 2 18 2C9.71572 2 3 8.71572 3 17C3 19.3995 3.56343 21.6674 4.56519 23.6787C4.83141 24.2132 4.92001 24.8241 4.76568 25.4009L3.87227 28.7401C3.48443 30.1895 4.81051 31.5155 6.26002 31.1278L9.59909 30.2344C10.1759 30.08 10.7868 30.1686 11.3213 30.4347C13.3326 31.4366 15.6005 32 18 32C26.2842 32 33 25.2842 33 17C33 14.2679 32.2695 11.7063 30.9933 9.5" stroke="black" stroke-width="1.5" stroke-linecap="round"/>
<circle cx="29" cy="6" r="5" fill="#FF0000"/>
</svg>
