<svg width="22" height="24" viewBox="0 0 22 24" fill="none" xmlns="http://www.w3.org/2000/svg">
<path fill-rule="evenodd" clip-rule="evenodd" d="M19.5115 9.53983L3.23338 1.20815C2.80807 0.955413 2.28757 0.931405 1.84146 1.14394C1.39534 1.35647 1.08069 1.77832 1 2.27211C1.00557 2.43616 1.0445 2.59726 1.11431 2.7453L4.21361 10.3512C4.36917 10.8562 4.45383 11.3811 4.4651 11.9101C4.45387 12.4392 4.36921 12.9641 4.21361 13.4691L1.11431 21.075C1.0445 21.223 1.00557 21.3842 1 21.5482C1.08126 22.0413 1.39585 22.4624 1.84148 22.6744C2.28713 22.8866 2.80694 22.8627 3.23195 22.6107L19.5115 14.279C20.4193 13.8507 21 12.9262 21 11.9094C21 10.8926 20.4193 9.96817 19.5115 9.53983Z" stroke="white" stroke-width="2" stroke-linecap="round" stroke-linejoin="round"/>
</svg>
